erDiagram
    usuario {
        int id PK
        text nombre_completo
        text correo_institucional
        text hash_contrasena
        text estado
        int esta_activo
    }
    rol {
        int id PK
        text nombre
        text descripcion
        int esta_activo
    }
    permiso {
        int id PK
        text codigo
        text modulo_nombre
        text accion_nombre
        int esta_activo
    }
    usuario_rol {
        int usuario_id FK
        int rol_id FK
    }
    rol_permiso {
        int rol_id FK
        int permiso_id FK
    }
    sesion_usuario {
        int id PK
        int usuario_id FK
        text token_sesion
        text emitido_en
        text expira_en
        text revocado_en
    }
    auditoria_log {
        int id PK
        int ejecutado_por_usuario_id FK
        text evento_en
        text modulo_nombre
        text accion_nombre
        text resumen_texto
    }
    carrera {
        int id PK
        text codigo
        text nombre
        text facultad_nombre
        int total_ciclos
        int esta_activo
    }
    escenario_proyeccion {
        int id PK
        int carrera_id FK
        text nombre
        int es_predeterminado
        int esta_activo
    }
    periodo_academico {
        int id PK
        int anio
        int numero_periodo
        text etiqueta_periodo
        int esta_activo
    }

    usuario ||--o{ usuario_rol : ""
    rol ||--o{ usuario_rol : ""
    rol ||--o{ rol_permiso : ""
    permiso ||--o{ rol_permiso : ""
    usuario ||--o{ sesion_usuario : ""
    usuario ||--o{ auditoria_log : "ejecutado_por"
    carrera ||--o{ escenario_proyeccion : ""
